<svg width="30" height="30" viewBox="0 0 30 30" fill="none" xmlns="http://www.w3.org/2000/svg">
<path d="M26.2498 26.25L20.821 20.8212M20.821 20.8212C21.7496 19.8926 22.4862 18.7902 22.9888 17.5769C23.4914 16.3636 23.75 15.0633 23.75 13.75C23.75 12.4367 23.4914 11.1364 22.9888 9.92307C22.4862 8.70978 21.7496 7.60736 20.821 6.67875C19.8924 5.75014 18.79 5.01352 17.5767 4.51096C16.3634 4.0084 15.063 3.74974 13.7498 3.74974C12.4365 3.74974 11.1361 4.0084 9.92284 4.51096C8.70955 5.01352 7.60713 5.75014 6.67852 6.67875C4.80311 8.55416 3.74951 11.0978 3.74951 13.75C3.74951 16.4022 4.80311 18.9458 6.67852 20.8212C8.55393 22.6967 11.0975 23.7503 13.7498 23.7503C16.402 23.7503 18.9456 22.6967 20.821 20.8212Z" stroke="black" stroke-width="1.5" stroke-linecap="round" stroke-linejoin="round"/>
</svg>
