<svg width="30" height="30" viewBox="0 0 30 30" fill="none" xmlns="http://www.w3.org/2000/svg">
<path d="M16.3514 13.39L10.3689 5.0025C10.2995 4.90505 10.2078 4.82562 10.1015 4.77082C9.99513 4.71602 9.87724 4.68745 9.75761 4.6875H6.60011C6.46249 4.68768 6.32757 4.72572 6.21012 4.79746C6.09267 4.8692 5.99723 4.97187 5.93424 5.09423C5.87125 5.2166 5.84314 5.35393 5.853 5.4912C5.86285 5.62848 5.91029 5.76039 5.99011 5.8725L13.6489 16.61M16.3514 13.39L24.0101 24.1275C24.0899 24.2396 24.1374 24.3715 24.1472 24.5088C24.1571 24.6461 24.129 24.7834 24.066 24.9058C24.003 25.0281 23.9076 25.1308 23.7901 25.2025C23.6727 25.2743 23.5377 25.3123 23.4001 25.3125H20.2426C20.123 25.3125 20.0051 25.284 19.8988 25.2292C19.7924 25.1744 19.7007 25.0949 19.6314 24.9975L13.6489 16.61M16.3514 13.39L23.6539 4.6875M13.6489 16.61L6.34636 25.3125" stroke="black" stroke-width="1.5" stroke-linecap="round" stroke-linejoin="round"/>
</svg>
