<?xml version="1.0" standalone="no"?>
<!DOCTYPE svg PUBLIC "-//W3C//DTD SVG 20010904//EN"
 "http://www.w3.org/TR/2001/REC-SVG-20010904/DTD/svg10.dtd">
<svg version="1.0" xmlns="http://www.w3.org/2000/svg"
 width="500.000000pt" height="500.000000pt" viewBox="0 0 500.000000 500.000000"
 preserveAspectRatio="xMidYMid meet">

<g transform="translate(0.000000,500.000000) scale(0.100000,-0.100000)"
fill="#000000" stroke="none">
<path d="M930 4505 c-8 -2 -55 -9 -105 -15 -96 -13 -108 -17 -100 -30 2 -4 35
-1 72 8 92 20 271 20 352 -2 185 -48 363 -206 501 -445 23 -40 82 -161 131
-269 l89 -195 -80 -227 c-44 -124 -80 -229 -80 -233 0 -4 6 -7 13 -7 7 0 40
83 81 208 38 114 71 210 75 214 4 5 48 -97 99 -226 l93 -233 67 -18 c83 -23
188 -65 270 -110 34 -19 62 -31 62 -26 0 5 -7 25 -15 45 -15 36 -15 37 135
483 83 245 159 461 170 478 19 31 114 123 161 157 23 16 17 17 -141 18 l-165
0 38 -31 c47 -39 67 -77 67 -129 0 -26 -31 -135 -79 -278 -84 -251 -204 -589
-213 -597 -2 -3 -26 55 -53 127 -182 502 -353 817 -549 1012 -218 218 -435
313 -736 321 -80 2 -152 2 -160 0z"/>
<path d="M897 4028 c27 -29 66 -82 85 -118 29 -51 289 -620 378 -826 l18 -41
94 18 c51 10 113 19 138 19 84 1 85 -4 -37 247 -130 267 -225 499 -231 565 -6
59 10 102 57 151 l35 37 -293 0 -294 0 50 -52z"/>
<path d="M1650 2969 c-105 -6 -240 -28 -240 -39 0 -16 15 -16 88 -3 96 19 288
20 364 4 154 -33 275 -107 431 -263 l108 -108 -3 -567 c-3 -567 -3 -568 -26
-617 -34 -74 -67 -113 -125 -146 l-52 -30 220 1 220 0 -40 21 c-59 30 -121 94
-147 152 -23 50 -23 56 -26 476 -1 234 -1 481 0 550 l3 125 77 -115 c42 -63
142 -239 223 -390 355 -662 503 -889 707 -1086 163 -157 328 -256 506 -305 99
-27 428 -41 420 -18 -4 11 -24 13 -83 11 -123 -5 -218 13 -310 57 -186 91
-348 280 -524 613 l-61 115 0 459 c0 252 5 492 10 531 15 117 68 199 163 250
l32 18 -113 3 c-62 1 -161 1 -220 0 -95 -3 -104 -4 -79 -15 87 -39 138 -98
169 -196 16 -54 18 -100 17 -530 l0 -472 -25 50 c-13 28 -70 147 -127 265
-149 311 -255 486 -415 686 -296 370 -678 542 -1142 513z"/>
<path d="M1530 2821 c-44 -8 -43 -19 6 -126 l37 -80 33 100 c19 54 34 103 34
107 0 9 -58 8 -110 -1z"/>
</g>
</svg>
